<svg version="1.1" xmlns="http://www.w3.org/2000/svg" xmlns:xlink="http://www.w3.org/1999/xlink" width="1077" height="809"><defs/><g><g><rect fill="#C0C0C0" stroke="none" x="447" y="7" width="168" height="266" transform="matrix(1 0 0 1 -14 10)" fill-opacity="0.2"/></g><g><rect fill="#ffffff" stroke="none" x="440" y="0" width="168" height="266" transform="matrix(1 0 0 1 -14 10)"/></g><g><path fill="none" stroke="#000000" paint-order="fill stroke markers" d=" M 426 10 L 594 10 L 594 276 L 426 276 L 426 10 Z Z" stroke-miterlimit="10" stroke-dasharray=""/></g><g><path fill="none" stroke="#000000" paint-order="fill stroke markers" d=" M 426 35 L 594 35" stroke-miterlimit="10" stroke-dasharray=""/></g><g><path fill="none" stroke="#000000" paint-order="fill stroke markers" d=" M 426 193 L 594 193" stroke-miterlimit="10" stroke-dasharray=""/></g><g><g><path fill="none" stroke="none"/><text fill="#000000" stroke="none" font-family="Arial" font-size="13px" font-style="normal" font-weight="bold" text-decoration="undefined" x="524.5" y="13.5" text-anchor="middle" dominant-baseline="central" transform="matrix(1 0 0 1 -14 10)">Utilisateur</text></g></g><g><g><path fill="none" stroke="none"/><text fill="#000000" stroke="none" font-family="Arial" font-size="13px" font-style="normal" font-weight="normal" text-decoration="undefined" x="445" y="36.5" text-anchor="start" dominant-baseline="central" transform="matrix(1 0 0 1 -14 10)">-id: int</text></g></g><g><g><path fill="none" stroke="none"/><text fill="#000000" stroke="none" font-family="Arial" font-size="13px" font-style="normal" font-weight="normal" text-decoration="undefined" x="445" y="51.5" text-anchor="start" dominant-baseline="central" transform="matrix(1 0 0 1 -14 10)">-nom: string</text></g></g><g><g><path fill="none" stroke="none"/><text fill="#000000" stroke="none" font-family="Arial" font-size="13px" font-style="normal" font-weight="normal" text-decoration="undefined" x="445" y="66.5" text-anchor="start" dominant-baseline="central" transform="matrix(1 0 0 1 -14 10)">-email: string</text></g></g><g><g><path fill="none" stroke="none"/><text fill="#000000" stroke="none" font-family="Arial" font-size="13px" font-style="normal" font-weight="normal" text-decoration="undefined" x="445" y="81.5" text-anchor="start" dominant-baseline="central" transform="matrix(1 0 0 1 -14 10)">-motDePasse: string</text></g></g><g><g><path fill="none" stroke="none"/><text fill="#000000" stroke="none" font-family="Arial" font-size="13px" font-style="normal" font-weight="normal" text-decoration="undefined" x="445" y="96.5" text-anchor="start" dominant-baseline="central" transform="matrix(1 0 0 1 -14 10)">-telephone: string</text></g></g><g><g><path fill="none" stroke="none"/><text fill="#000000" stroke="none" font-family="Arial" font-size="13px" font-style="normal" font-weight="normal" text-decoration="undefined" x="445" y="111.5" text-anchor="start" dominant-baseline="central" transform="matrix(1 0 0 1 -14 10)">-role: string</text></g></g><g><g><path fill="none" stroke="none"/><text fill="#000000" stroke="none" font-family="Arial" font-size="13px" font-style="normal" font-weight="normal" text-decoration="undefined" x="445" y="126.5" text-anchor="start" dominant-baseline="central" transform="matrix(1 0 0 1 -14 10)">-statutVerification: string</text></g></g><g><g><path fill="none" stroke="none"/><text fill="#000000" stroke="none" font-family="Arial" font-size="13px" font-style="normal" font-weight="normal" text-decoration="undefined" x="445" y="141.5" text-anchor="start" dominant-baseline="central" transform="matrix(1 0 0 1 -14 10)">-dateCreation: Date</text></g></g><g><g><path fill="none" stroke="none"/><text fill="#000000" stroke="none" font-family="Arial" font-size="13px" font-style="normal" font-weight="normal" text-decoration="undefined" x="445" y="156.5" text-anchor="start" dominant-baseline="central" transform="matrix(1 0 0 1 -14 10)">-otpCode: string</text></g></g><g><g><path fill="none" stroke="none"/><text fill="#000000" stroke="none" font-family="Arial" font-size="13px" font-style="normal" font-weight="normal" text-decoration="undefined" x="445" y="171.5" text-anchor="start" dominant-baseline="central" transform="matrix(1 0 0 1 -14 10)">-lastIPAddr</text></g></g><g><g><path fill="none" stroke="none"/><text fill="#000000" stroke="none" font-family="Arial" font-size="13px" font-style="normal" font-weight="normal" text-decoration="undefined" x="445" y="194.5" text-anchor="start" dominant-baseline="central" transform="matrix(1 0 0 1 -14 10)">+updateProfile()</text></g></g><g><g><path fill="none" stroke="none"/><text fill="#000000" stroke="none" font-family="Arial" font-size="13px" font-style="normal" font-weight="normal" text-decoration="undefined" x="445" y="209.5" text-anchor="start" dominant-baseline="central" transform="matrix(1 0 0 1 -14 10)">+sendOtp()</text></g></g><g><g><path fill="none" stroke="none"/><text fill="#000000" stroke="none" font-family="Arial" font-size="13px" font-style="normal" font-weight="normal" text-decoration="undefined" x="445" y="224.5" text-anchor="start" dominant-baseline="central" transform="matrix(1 0 0 1 -14 10)">+ValidateOtp()</text></g></g><g><rect fill="#C0C0C0" stroke="none" x="719" y="639" width="160" height="118" transform="matrix(1 0 0 1 -14 10)" fill-opacity="0.2"/></g><g><rect fill="#ffffff" stroke="none" x="712" y="632" width="160" height="118" transform="matrix(1 0 0 1 -14 10)"/></g><g><path fill="none" stroke="#000000" paint-order="fill stroke markers" d=" M 698 642 L 858 642 L 858 760 L 698 760 L 698 642 Z Z" stroke-miterlimit="10" stroke-dasharray=""/></g><g><path fill="none" stroke="#000000" paint-order="fill stroke markers" d=" M 698 667 L 858 667" stroke-miterlimit="10" stroke-dasharray=""/></g><g><path fill="none" stroke="#000000" paint-order="fill stroke markers" d=" M 698 750 L 858 750" stroke-miterlimit="10" stroke-dasharray=""/></g><g><g><path fill="none" stroke="none"/><text fill="#000000" stroke="none" font-family="Arial" font-size="13px" font-style="normal" font-weight="bold" text-decoration="undefined" x="792.5" y="645.5" text-anchor="middle" dominant-baseline="central" transform="matrix(1 0 0 1 -14 10)">Document</text></g></g><g><g><path fill="none" stroke="none"/><text fill="#000000" stroke="none" font-family="Arial" font-size="13px" font-style="normal" font-weight="normal" text-decoration="undefined" x="717" y="668.5" text-anchor="start" dominant-baseline="central" transform="matrix(1 0 0 1 -14 10)">-id: int</text></g></g><g><g><path fill="none" stroke="none"/><text fill="#000000" stroke="none" font-family="Arial" font-size="13px" font-style="normal" font-weight="normal" text-decoration="undefined" x="717" y="683.5" text-anchor="start" dominant-baseline="central" transform="matrix(1 0 0 1 -14 10)">-idUtilisateur: int</text></g></g><g><g><path fill="none" stroke="none"/><text fill="#000000" stroke="none" font-family="Arial" font-size="13px" font-style="normal" font-weight="normal" text-decoration="undefined" x="717" y="698.5" text-anchor="start" dominant-baseline="central" transform="matrix(1 0 0 1 -14 10)">-cheminDocument: string</text></g></g><g><g><path fill="none" stroke="none"/><text fill="#000000" stroke="none" font-family="Arial" font-size="13px" font-style="normal" font-weight="normal" text-decoration="undefined" x="717" y="713.5" text-anchor="start" dominant-baseline="central" transform="matrix(1 0 0 1 -14 10)">-type: string</text></g></g><g><g><path fill="none" stroke="none"/><text fill="#000000" stroke="none" font-family="Arial" font-size="13px" font-style="normal" font-weight="normal" text-decoration="undefined" x="717" y="728.5" text-anchor="start" dominant-baseline="central" transform="matrix(1 0 0 1 -14 10)">-statut: string</text></g></g><g><rect fill="#C0C0C0" stroke="none" x="87" y="391" width="152" height="206" transform="matrix(1 0 0 1 -14 10)" fill-opacity="0.2"/></g><g><rect fill="#ffffff" stroke="none" x="80" y="384" width="152" height="206" transform="matrix(1 0 0 1 -14 10)"/></g><g><path fill="none" stroke="#000000" paint-order="fill stroke markers" d=" M 66 394 L 218 394 L 218 600 L 66 600 L 66 394 Z Z" stroke-miterlimit="10" stroke-dasharray=""/></g><g><path fill="none" stroke="#000000" paint-order="fill stroke markers" d=" M 66 419 L 218 419" stroke-miterlimit="10" stroke-dasharray=""/></g><g><path fill="none" stroke="#000000" paint-order="fill stroke markers" d=" M 66 532 L 218 532" stroke-miterlimit="10" stroke-dasharray=""/></g><g><g><path fill="none" stroke="none"/><text fill="#000000" stroke="none" font-family="Arial" font-size="13px" font-style="normal" font-weight="bold" text-decoration="undefined" x="156.5" y="397.5" text-anchor="middle" dominant-baseline="central" transform="matrix(1 0 0 1 -14 10)">Demandes</text></g></g><g><g><path fill="none" stroke="none"/><text fill="#000000" stroke="none" font-family="Arial" font-size="13px" font-style="normal" font-weight="normal" text-decoration="undefined" x="85" y="420.5" text-anchor="start" dominant-baseline="central" transform="matrix(1 0 0 1 -14 10)">-id: int</text></g></g><g><g><path fill="none" stroke="none"/><text fill="#000000" stroke="none" font-family="Arial" font-size="13px" font-style="normal" font-weight="normal" text-decoration="undefined" x="85" y="435.5" text-anchor="start" dominant-baseline="central" transform="matrix(1 0 0 1 -14 10)">-idEtudiant: int</text></g></g><g><g><path fill="none" stroke="none"/><text fill="#000000" stroke="none" font-family="Arial" font-size="13px" font-style="normal" font-weight="normal" text-decoration="undefined" x="85" y="450.5" text-anchor="start" dominant-baseline="central" transform="matrix(1 0 0 1 -14 10)">-titre: string</text></g></g><g><g><path fill="none" stroke="none"/><text fill="#000000" stroke="none" font-family="Arial" font-size="13px" font-style="normal" font-weight="normal" text-decoration="undefined" x="85" y="465.5" text-anchor="start" dominant-baseline="central" transform="matrix(1 0 0 1 -14 10)">-categorie: string</text></g></g><g><g><path fill="none" stroke="none"/><text fill="#000000" stroke="none" font-family="Arial" font-size="13px" font-style="normal" font-weight="normal" text-decoration="undefined" x="85" y="480.5" text-anchor="start" dominant-baseline="central" transform="matrix(1 0 0 1 -14 10)">-budget: float</text></g></g><g><g><path fill="none" stroke="none"/><text fill="#000000" stroke="none" font-family="Arial" font-size="13px" font-style="normal" font-weight="normal" text-decoration="undefined" x="85" y="495.5" text-anchor="start" dominant-baseline="central" transform="matrix(1 0 0 1 -14 10)">-statut: string</text></g></g><g><g><path fill="none" stroke="none"/><text fill="#000000" stroke="none" font-family="Arial" font-size="13px" font-style="normal" font-weight="normal" text-decoration="undefined" x="85" y="510.5" text-anchor="start" dominant-baseline="central" transform="matrix(1 0 0 1 -14 10)">-dateCreation: Date</text></g></g><g><g><path fill="none" stroke="none"/><text fill="#000000" stroke="none" font-family="Arial" font-size="13px" font-style="normal" font-weight="normal" text-decoration="undefined" x="85" y="533.5" text-anchor="start" dominant-baseline="central" transform="matrix(1 0 0 1 -14 10)">+create()</text></g></g><g><g><path fill="none" stroke="none"/><text fill="#000000" stroke="none" font-family="Arial" font-size="13px" font-style="normal" font-weight="normal" text-decoration="undefined" x="85" y="548.5" text-anchor="start" dominant-baseline="central" transform="matrix(1 0 0 1 -14 10)">+update()</text></g></g><g><g><path fill="none" stroke="none"/><text fill="#000000" stroke="none" font-family="Arial" font-size="13px" font-style="normal" font-weight="normal" text-decoration="undefined" x="85" y="563.5" text-anchor="start" dominant-baseline="central" transform="matrix(1 0 0 1 -14 10)">+delete()</text></g></g><g><g><path fill="none" stroke="none"/><text fill="#000000" stroke="none" font-family="Arial" font-size="13px" font-style="normal" font-weight="normal" text-decoration="undefined" x="85" y="578.5" text-anchor="start" dominant-baseline="central" transform="matrix(1 0 0 1 -14 10)">+restore()</text></g></g><g><rect fill="#C0C0C0" stroke="none" x="295" y="647" width="192" height="131" transform="matrix(1 0 0 1 -14 10)" fill-opacity="0.2"/></g><g><rect fill="#ffffff" stroke="none" x="288" y="640" width="192" height="131" transform="matrix(1 0 0 1 -14 10)"/></g><g><path fill="none" stroke="#000000" paint-order="fill stroke markers" d=" M 274 650 L 466 650 L 466 781 L 274 781 L 274 650 Z Z" stroke-miterlimit="10" stroke-dasharray=""/></g><g><path fill="none" stroke="#000000" paint-order="fill stroke markers" d=" M 274 675 L 466 675" stroke-miterlimit="10" stroke-dasharray=""/></g><g><path fill="none" stroke="#000000" paint-order="fill stroke markers" d=" M 274 758 L 466 758" stroke-miterlimit="10" stroke-dasharray=""/></g><g><g><path fill="none" stroke="none"/><text fill="#000000" stroke="none" font-family="Arial" font-size="13px" font-style="normal" font-weight="bold" text-decoration="undefined" x="384.5" y="653.5" text-anchor="middle" dominant-baseline="central" transform="matrix(1 0 0 1 -14 10)">Applications</text></g></g><g><g><path fill="none" stroke="none"/><text fill="#000000" stroke="none" font-family="Arial" font-size="13px" font-style="normal" font-weight="normal" text-decoration="undefined" x="293" y="676.5" text-anchor="start" dominant-baseline="central" transform="matrix(1 0 0 1 -14 10)">-id: int</text></g></g><g><g><path fill="none" stroke="none"/><text fill="#000000" stroke="none" font-family="Arial" font-size="13px" font-style="normal" font-weight="normal" text-decoration="undefined" x="293" y="691.5" text-anchor="start" dominant-baseline="central" transform="matrix(1 0 0 1 -14 10)">-idDemande: int</text></g></g><g><g><path fill="none" stroke="none"/><text fill="#000000" stroke="none" font-family="Arial" font-size="13px" font-style="normal" font-weight="normal" text-decoration="undefined" x="293" y="706.5" text-anchor="start" dominant-baseline="central" transform="matrix(1 0 0 1 -14 10)">-idEnseignant: int</text></g></g><g><g><path fill="none" stroke="none"/><text fill="#000000" stroke="none" font-family="Arial" font-size="13px" font-style="normal" font-weight="normal" text-decoration="undefined" x="293" y="721.5" text-anchor="start" dominant-baseline="central" transform="matrix(1 0 0 1 -14 10)">-statut: string</text></g></g><g><g><path fill="none" stroke="none"/><text fill="#000000" stroke="none" font-family="Arial" font-size="13px" font-style="normal" font-weight="normal" text-decoration="undefined" x="293" y="736.5" text-anchor="start" dominant-baseline="central" transform="matrix(1 0 0 1 -14 10)">-dateCandidature: Date</text></g></g><g><g><path fill="none" stroke="none"/><text fill="#000000" stroke="none" font-family="Arial" font-size="13px" font-style="normal" font-weight="normal" text-decoration="undefined" x="293" y="759.5" text-anchor="start" dominant-baseline="central" transform="matrix(1 0 0 1 -14 10)">+apply()</text></g></g><g><rect fill="#C0C0C0" stroke="none" x="31" y="663" width="166.787109375" height="133" transform="matrix(1 0 0 1 -14 10)" fill-opacity="0.2"/></g><g><rect fill="#ffffff" stroke="none" x="24" y="656" width="166.787109375" height="133" transform="matrix(1 0 0 1 -14 10)"/></g><g><path fill="none" stroke="#000000" paint-order="fill stroke markers" d=" M 10 666 L 176.787109375 666 L 176.787109375 799 L 10 799 L 10 666 Z Z" stroke-miterlimit="10" stroke-dasharray=""/></g><g><path fill="none" stroke="#000000" paint-order="fill stroke markers" d=" M 10 691 L 176.787109375 691" stroke-miterlimit="10" stroke-dasharray=""/></g><g><path fill="none" stroke="#000000" paint-order="fill stroke markers" d=" M 10 789 L 176.787109375 789" stroke-miterlimit="10" stroke-dasharray=""/></g><g><g><path fill="none" stroke="none"/><text fill="#000000" stroke="none" font-family="Arial" font-size="13px" font-style="normal" font-weight="bold" text-decoration="undefined" x="107.8935546875" y="669.5" text-anchor="middle" dominant-baseline="central" transform="matrix(1 0 0 1 -14 10)">Transaction</text></g></g><g><g><path fill="none" stroke="none"/><text fill="#000000" stroke="none" font-family="Arial" font-size="13px" font-style="normal" font-weight="normal" text-decoration="undefined" x="29" y="692.5" text-anchor="start" dominant-baseline="central" transform="matrix(1 0 0 1 -14 10)">-id: int</text></g></g><g><g><path fill="none" stroke="none"/><text fill="#000000" stroke="none" font-family="Arial" font-size="13px" font-style="normal" font-weight="normal" text-decoration="undefined" x="29" y="707.5" text-anchor="start" dominant-baseline="central" transform="matrix(1 0 0 1 -14 10)">-idDemande: int</text></g></g><g><g><path fill="none" stroke="none"/><text fill="#000000" stroke="none" font-family="Arial" font-size="13px" font-style="normal" font-weight="normal" text-decoration="undefined" x="29" y="722.5" text-anchor="start" dominant-baseline="central" transform="matrix(1 0 0 1 -14 10)">-preuvePaiement: string</text></g></g><g><g><path fill="none" stroke="none"/><text fill="#000000" stroke="none" font-family="Arial" font-size="13px" font-style="normal" font-weight="normal" text-decoration="undefined" x="29" y="737.5" text-anchor="start" dominant-baseline="central" transform="matrix(1 0 0 1 -14 10)">-preuveConfirmation: string</text></g></g><g><g><path fill="none" stroke="none"/><text fill="#000000" stroke="none" font-family="Arial" font-size="13px" font-style="normal" font-weight="normal" text-decoration="undefined" x="29" y="752.5" text-anchor="start" dominant-baseline="central" transform="matrix(1 0 0 1 -14 10)">-statut: string</text></g></g><g><g><path fill="none" stroke="none"/><text fill="#000000" stroke="none" font-family="Arial" font-size="13px" font-style="normal" font-weight="normal" text-decoration="undefined" x="29" y="767.5" text-anchor="start" dominant-baseline="central" transform="matrix(1 0 0 1 -14 10)">-dateTransaction: Date</text></g></g><g><rect fill="#C0C0C0" stroke="none" x="511" y="639" width="168" height="133" transform="matrix(1 0 0 1 -14 10)" fill-opacity="0.2"/></g><g><rect fill="#ffffff" stroke="none" x="504" y="632" width="168" height="133" transform="matrix(1 0 0 1 -14 10)"/></g><g><path fill="none" stroke="#000000" paint-order="fill stroke markers" d=" M 490 642 L 658 642 L 658 775 L 490 775 L 490 642 Z Z" stroke-miterlimit="10" stroke-dasharray=""/></g><g><path fill="none" stroke="#000000" paint-order="fill stroke markers" d=" M 490 667 L 658 667" stroke-miterlimit="10" stroke-dasharray=""/></g><g><path fill="none" stroke="#000000" paint-order="fill stroke markers" d=" M 490 765 L 658 765" stroke-miterlimit="10" stroke-dasharray=""/></g><g><g><path fill="none" stroke="none"/><text fill="#000000" stroke="none" font-family="Arial" font-size="13px" font-style="normal" font-weight="bold" text-decoration="undefined" x="588.5" y="645.5" text-anchor="middle" dominant-baseline="central" transform="matrix(1 0 0 1 -14 10)">Avis</text></g></g><g><g><path fill="none" stroke="none"/><text fill="#000000" stroke="none" font-family="Arial" font-size="13px" font-style="normal" font-weight="normal" text-decoration="undefined" x="509" y="668.5" text-anchor="start" dominant-baseline="central" transform="matrix(1 0 0 1 -14 10)">-id: int</text></g></g><g><g><path fill="none" stroke="none"/><text fill="#000000" stroke="none" font-family="Arial" font-size="13px" font-style="normal" font-weight="normal" text-decoration="undefined" x="509" y="683.5" text-anchor="start" dominant-baseline="central" transform="matrix(1 0 0 1 -14 10)">-idRedacteur: int</text></g></g><g><g><path fill="none" stroke="none"/><text fill="#000000" stroke="none" font-family="Arial" font-size="13px" font-style="normal" font-weight="normal" text-decoration="undefined" x="509" y="698.5" text-anchor="start" dominant-baseline="central" transform="matrix(1 0 0 1 -14 10)">-idDestinataire: int</text></g></g><g><g><path fill="none" stroke="none"/><text fill="#000000" stroke="none" font-family="Arial" font-size="13px" font-style="normal" font-weight="normal" text-decoration="undefined" x="509" y="713.5" text-anchor="start" dominant-baseline="central" transform="matrix(1 0 0 1 -14 10)">-note: int</text></g></g><g><g><path fill="none" stroke="none"/><text fill="#000000" stroke="none" font-family="Arial" font-size="13px" font-style="normal" font-weight="normal" text-decoration="undefined" x="509" y="728.5" text-anchor="start" dominant-baseline="central" transform="matrix(1 0 0 1 -14 10)">-commentaire: string</text></g></g><g><g><path fill="none" stroke="none"/><text fill="#000000" stroke="none" font-family="Arial" font-size="13px" font-style="normal" font-weight="normal" text-decoration="undefined" x="509" y="743.5" text-anchor="start" dominant-baseline="central" transform="matrix(1 0 0 1 -14 10)">-datePublication: Date</text></g></g><g><path fill="none" stroke="#000000" paint-order="fill stroke markers" d=" M 418 650 L 418 569 L 218 569" stroke-miterlimit="10" stroke-dasharray=""/></g><g><path fill="#000000" stroke="none" paint-order="stroke fill markers" d=" M 228.16267485762415 564.790482243984 L 218 569 L 228.16267485762415 573.209517756016 L 240 569"/></g><g><path fill="none" stroke="#000000" paint-order="fill stroke markers" d=" M 228.16267485762415 564.790482243984 L 218 569 L 228.16267485762415 573.209517756016 L 240 569 L 228.16267485762415 564.790482243984" stroke-miterlimit="10" stroke-dasharray=""/></g><g><rect fill="#ffffff" stroke="none" x="441" y="612" width="7.22998046875" height="13" transform="matrix(1 0 0 1 -14 10)"/></g><g><g><path fill="none" stroke="none"/><text fill="#000000" stroke="none" font-family="Arial" font-size="13px" font-style="normal" font-weight="normal" text-decoration="undefined" x="444.614990234375" y="618.5" text-anchor="middle" dominant-baseline="central" transform="matrix(1 0 0 1 -14 10)">1</text></g></g><g><rect fill="#ffffff" stroke="none" x="251" y="540" width="5.05908203125" height="13" transform="matrix(1 0 0 1 -14 10)"/></g><g><g><path fill="none" stroke="none"/><text fill="#000000" stroke="none" font-family="Arial" font-size="13px" font-style="normal" font-weight="normal" text-decoration="undefined" x="253.529541015625" y="546.5" text-anchor="middle" dominant-baseline="central" transform="matrix(1 0 0 1 -14 10)">*</text></g></g><g><path fill="none" stroke="#000000" paint-order="fill stroke markers" d=" M 93 666 L 93 600" stroke-miterlimit="10" stroke-dasharray=""/></g><g><path fill="#000000" stroke="none" paint-order="stroke fill markers" d=" M 97.20951775601598 610.1626748576241 L 93 600 L 88.79048224398402 610.1626748576241 L 93 622"/></g><g><path fill="none" stroke="#000000" paint-order="fill stroke markers" d=" M 97.20951775601598 610.1626748576241 L 93 600 L 88.79048224398402 610.1626748576241 L 93 622 L 97.20951775601598 610.1626748576241" stroke-miterlimit="10" stroke-dasharray=""/></g><g><rect fill="#ffffff" stroke="none" x="116" y="628" width="7.22998046875" height="13" transform="matrix(1 0 0 1 -14 10)"/></g><g><g><path fill="none" stroke="none"/><text fill="#000000" stroke="none" font-family="Arial" font-size="13px" font-style="normal" font-weight="normal" text-decoration="undefined" x="119.614990234375" y="634.5" text-anchor="middle" dominant-baseline="central" transform="matrix(1 0 0 1 -14 10)">1</text></g></g><g><rect fill="#ffffff" stroke="none" x="116" y="605" width="7.22998046875" height="13" transform="matrix(1 0 0 1 -14 10)"/></g><g><g><path fill="none" stroke="none"/><text fill="#000000" stroke="none" font-family="Arial" font-size="13px" font-style="normal" font-weight="normal" text-decoration="undefined" x="119.614990234375" y="611.5" text-anchor="middle" dominant-baseline="central" transform="matrix(1 0 0 1 -14 10)">1</text></g></g><g><rect fill="#C0C0C0" stroke="none" x="799" y="423" width="184" height="120" transform="matrix(1 0 0 1 -14 10)" fill-opacity="0.2"/></g><g><rect fill="#ffffff" stroke="none" x="792" y="416" width="184" height="120" transform="matrix(1 0 0 1 -14 10)"/></g><g><path fill="none" stroke="#000000" paint-order="fill stroke markers" d=" M 778 426 L 962 426 L 962 546 L 778 546 L 778 426 Z Z" stroke-miterlimit="10" stroke-dasharray=""/></g><g><path fill="none" stroke="#000000" paint-order="fill stroke markers" d=" M 778 451 L 962 451" stroke-miterlimit="10" stroke-dasharray=""/></g><g><path fill="none" stroke="#000000" paint-order="fill stroke markers" d=" M 778 461 L 962 461" stroke-miterlimit="10" stroke-dasharray=""/></g><g><g><path fill="none" stroke="none"/><text fill="#000000" stroke="none" font-family="Arial" font-size="13px" font-style="normal" font-weight="bold" text-decoration="undefined" x="884.5" y="429.5" text-anchor="middle" dominant-baseline="central" transform="matrix(1 0 0 1 -14 10)">Admin</text></g></g><g><g><path fill="none" stroke="none"/><text fill="#000000" stroke="none" font-family="Arial" font-size="13px" font-style="normal" font-weight="normal" text-decoration="undefined" x="797" y="462.5" text-anchor="start" dominant-baseline="central" transform="matrix(1 0 0 1 -14 10)">+login()</text></g></g><g><g><path fill="none" stroke="none"/><text fill="#000000" stroke="none" font-family="Arial" font-size="13px" font-style="normal" font-weight="normal" text-decoration="undefined" x="797" y="477.5" text-anchor="start" dominant-baseline="central" transform="matrix(1 0 0 1 -14 10)">+BlockUser()</text></g></g><g><g><path fill="none" stroke="none"/><text fill="#000000" stroke="none" font-family="Arial" font-size="13px" font-style="normal" font-weight="normal" text-decoration="undefined" x="797" y="492.5" text-anchor="start" dominant-baseline="central" transform="matrix(1 0 0 1 -14 10)">+activateUser()</text></g></g><g><g><path fill="none" stroke="none"/><text fill="#000000" stroke="none" font-family="Arial" font-size="13px" font-style="normal" font-weight="normal" text-decoration="undefined" x="797" y="507.5" text-anchor="start" dominant-baseline="central" transform="matrix(1 0 0 1 -14 10)">+acceptUser()</text></g></g><g><g><path fill="none" stroke="none"/><text fill="#000000" stroke="none" font-family="Arial" font-size="13px" font-style="normal" font-weight="normal" text-decoration="undefined" x="797" y="522.5" text-anchor="start" dominant-baseline="central" transform="matrix(1 0 0 1 -14 10)">+rejectUser()</text></g></g><g><rect fill="#C0C0C0" stroke="none" x="39" y="207" width="224" height="88" transform="matrix(1 0 0 1 -14 10)" fill-opacity="0.2"/></g><g><rect fill="#ffffff" stroke="none" x="32" y="200" width="224" height="88" transform="matrix(1 0 0 1 -14 10)"/></g><g><path fill="none" stroke="#000000" paint-order="fill stroke markers" d=" M 18 210 L 242 210 L 242 298 L 18 298 L 18 210 Z Z" stroke-miterlimit="10" stroke-dasharray=""/></g><g><path fill="none" stroke="#000000" paint-order="fill stroke markers" d=" M 18 235 L 242 235" stroke-miterlimit="10" stroke-dasharray=""/></g><g><path fill="none" stroke="#000000" paint-order="fill stroke markers" d=" M 18 245 L 242 245" stroke-miterlimit="10" stroke-dasharray=""/></g><g><g><path fill="none" stroke="none"/><text fill="#000000" stroke="none" font-family="Arial" font-size="13px" font-style="normal" font-weight="bold" text-decoration="undefined" x="144.5" y="213.5" text-anchor="middle" dominant-baseline="central" transform="matrix(1 0 0 1 -14 10)">Teacher</text></g></g><g><g><path fill="none" stroke="none"/><text fill="#000000" stroke="none" font-family="Arial" font-size="13px" font-style="normal" font-weight="normal" text-decoration="undefined" x="37" y="246.5" text-anchor="start" dominant-baseline="central" transform="matrix(1 0 0 1 -14 10)">+login()</text></g></g><g><g><path fill="none" stroke="none"/><text fill="#000000" stroke="none" font-family="Arial" font-size="13px" font-style="normal" font-weight="normal" text-decoration="undefined" x="37" y="261.5" text-anchor="start" dominant-baseline="central" transform="matrix(1 0 0 1 -14 10)">+register()</text></g></g><g><rect fill="#C0C0C0" stroke="none" x="863" y="303" width="224" height="88" transform="matrix(1 0 0 1 -14 10)" fill-opacity="0.2"/></g><g><rect fill="#ffffff" stroke="none" x="856" y="296" width="224" height="88" transform="matrix(1 0 0 1 -14 10)"/></g><g><path fill="none" stroke="#000000" paint-order="fill stroke markers" d=" M 842 306 L 1066 306 L 1066 394 L 842 394 L 842 306 Z Z" stroke-miterlimit="10" stroke-dasharray=""/></g><g><path fill="none" stroke="#000000" paint-order="fill stroke markers" d=" M 842 331 L 1066 331" stroke-miterlimit="10" stroke-dasharray=""/></g><g><path fill="none" stroke="#000000" paint-order="fill stroke markers" d=" M 842 341 L 1066 341" stroke-miterlimit="10" stroke-dasharray=""/></g><g><g><path fill="none" stroke="none"/><text fill="#000000" stroke="none" font-family="Arial" font-size="13px" font-style="normal" font-weight="bold" text-decoration="undefined" x="968.5" y="309.5" text-anchor="middle" dominant-baseline="central" transform="matrix(1 0 0 1 -14 10)">Teacher</text></g></g><g><g><path fill="none" stroke="none"/><text fill="#000000" stroke="none" font-family="Arial" font-size="13px" font-style="normal" font-weight="normal" text-decoration="undefined" x="861" y="342.5" text-anchor="start" dominant-baseline="central" transform="matrix(1 0 0 1 -14 10)">+login()</text></g></g><g><g><path fill="none" stroke="none"/><text fill="#000000" stroke="none" font-family="Arial" font-size="13px" font-style="normal" font-weight="normal" text-decoration="undefined" x="861" y="357.5" text-anchor="start" dominant-baseline="central" transform="matrix(1 0 0 1 -14 10)">+register()</text></g></g><g><path fill="none" stroke="#000000" paint-order="fill stroke markers" d=" M 857 305 L 595 183" stroke-miterlimit="10" stroke-dasharray=""/></g><g><path fill="#FFFFFF" stroke="none" paint-order="stroke fill markers" d=" M 616.9795770753994 183.94772970122165 L 595 183 L 609.8717618991616 199.212054096093"/></g><g><path fill="none" stroke="#000000" paint-order="fill stroke markers" d=" M 616.9795770753994 183.94772970122165 L 595 183 L 609.8717618991616 199.212054096093 L 616.9795770753994 183.94772970122165" stroke-miterlimit="10" stroke-dasharray=""/></g><g><path fill="none" stroke="#000000" paint-order="fill stroke markers" d=" M 566 641 L 525 277" stroke-miterlimit="10" stroke-dasharray=""/></g><g><path fill="#000000" stroke="none" paint-order="stroke fill markers" d=" M 530.3205695287735 286.62764456601343 L 525 277 L 521.9544380340883 287.5699835530521 L 527.4624504416478 298.86175514048284"/></g><g><path fill="none" stroke="#000000" paint-order="fill stroke markers" d=" M 530.3205695287735 286.62764456601343 L 525 277 L 521.9544380340883 287.5699835530521 L 527.4624504416478 298.86175514048284 L 530.3205695287735 286.62764456601343" stroke-miterlimit="10" stroke-dasharray=""/></g><g><rect fill="#ffffff" stroke="none" x="587" y="602" width="5.05908203125" height="13" transform="matrix(1 0 0 1 -14 10)"/></g><g><g><path fill="none" stroke="none"/><text fill="#000000" stroke="none" font-family="Arial" font-size="13px" font-style="normal" font-weight="normal" text-decoration="undefined" x="589.529541015625" y="608.5" text-anchor="middle" dominant-baseline="central" transform="matrix(1 0 0 1 -14 10)">*</text></g></g><g><rect fill="#ffffff" stroke="none" x="550" y="281" width="7.22998046875" height="13" transform="matrix(1 0 0 1 -14 10)"/></g><g><g><path fill="none" stroke="none"/><text fill="#000000" stroke="none" font-family="Arial" font-size="13px" font-style="normal" font-weight="normal" text-decoration="undefined" x="553.614990234375" y="287.5" text-anchor="middle" dominant-baseline="central" transform="matrix(1 0 0 1 -14 10)">1</text></g></g><g><path fill="none" stroke="#000000" paint-order="fill stroke markers" d=" M 749 641 L 574 277" stroke-miterlimit="10" stroke-dasharray=""/></g><g><path fill="#000000" stroke="none" paint-order="stroke fill markers" d=" M 582.1972685428715 284.3351747379357 L 574 277 L 574.609592375489 287.98309597225415 L 583.5324775670933 296.8275533395541"/></g><g><path fill="none" stroke="#000000" paint-order="fill stroke markers" d=" M 582.1972685428715 284.3351747379357 L 574 277 L 574.609592375489 287.98309597225415 L 583.5324775670933 296.8275533395541 L 582.1972685428715 284.3351747379357" stroke-miterlimit="10" stroke-dasharray=""/></g><g><rect fill="#ffffff" stroke="none" x="761" y="600" width="7.22998046875" height="13" transform="matrix(1 0 0 1 -14 10)"/></g><g><g><path fill="none" stroke="none"/><text fill="#000000" stroke="none" font-family="Arial" font-size="13px" font-style="normal" font-weight="normal" text-decoration="undefined" x="764.614990234375" y="606.5" text-anchor="middle" dominant-baseline="central" transform="matrix(1 0 0 1 -14 10)">1</text></g></g><g><rect fill="#ffffff" stroke="none" x="605" y="275" width="7.22998046875" height="13" transform="matrix(1 0 0 1 -14 10)"/></g><g><g><path fill="none" stroke="none"/><text fill="#000000" stroke="none" font-family="Arial" font-size="13px" font-style="normal" font-weight="normal" text-decoration="undefined" x="608.614990234375" y="281.5" text-anchor="middle" dominant-baseline="central" transform="matrix(1 0 0 1 -14 10)">*</text></g></g><g><path fill="none" stroke="#000000" paint-order="fill stroke markers" d=" M 806 425 L 595 224" stroke-miterlimit="10" stroke-dasharray=""/></g><g><path fill="#FFFFFF" stroke="none" paint-order="stroke fill markers" d=" M 615.5236506558946 231.92336820770038 L 595 224 L 603.909745163984 244.11507994298964"/></g><g><path fill="none" stroke="#000000" paint-order="fill stroke markers" d=" M 615.5236506558946 231.92336820770038 L 595 224 L 603.909745163984 244.11507994298964 L 615.5236506558946 231.92336820770038" stroke-miterlimit="10" stroke-dasharray=""/></g><g><path fill="none" stroke="#000000" paint-order="fill stroke markers" d=" M 243 221 L 425 168" stroke-miterlimit="10" stroke-dasharray=""/></g><g><path fill="#FFFFFF" stroke="none" paint-order="stroke fill markers" d=" M 407.83918296928493 181.76613085940704 L 425 168 L 403.13134542549165 165.5995943882679"/></g><g><path fill="none" stroke="#000000" paint-order="fill stroke markers" d=" M 407.83918296928493 181.76613085940704 L 425 168 L 403.13134542549165 165.5995943882679 L 407.83918296928493 181.76613085940704" stroke-miterlimit="10" stroke-dasharray=""/></g><g><path fill="none" stroke="#000000" paint-order="fill stroke markers" d=" M 219 423 L 425 225" stroke-miterlimit="10" stroke-dasharray=""/></g><g><path fill="#000000" stroke="none" paint-order="stroke fill markers" d=" M 420.59010567335196 235.07734250821105 L 425 225 L 414.7559765934156 229.00749104120655 L 409.1387137418228 240.24531397630625"/></g><g><path fill="none" stroke="#000000" paint-order="fill stroke markers" d=" M 420.59010567335196 235.07734250821105 L 425 225 L 414.7559765934156 229.00749104120655 L 409.1387137418228 240.24531397630625 L 420.59010567335196 235.07734250821105" stroke-miterlimit="10" stroke-dasharray=""/></g><g><rect fill="#ffffff" stroke="none" x="254" y="401" width="7.22998046875" height="13" transform="matrix(1 0 0 1 -14 10)"/></g><g><g><path fill="none" stroke="none"/><text fill="#000000" stroke="none" font-family="Arial" font-size="13px" font-style="normal" font-weight="normal" text-decoration="undefined" x="257.614990234375" y="407.5" text-anchor="middle" dominant-baseline="central" transform="matrix(1 0 0 1 -14 10)">1</text></g></g><g><rect fill="#ffffff" stroke="none" x="430" y="233" width="5.05908203125" height="13" transform="matrix(1 0 0 1 -14 10)"/></g><g><g><path fill="none" stroke="none"/><text fill="#000000" stroke="none" font-family="Arial" font-size="13px" font-style="normal" font-weight="normal" text-decoration="undefined" x="432.529541015625" y="239.5" text-anchor="middle" dominant-baseline="central" transform="matrix(1 0 0 1 -14 10)">*</text></g></g></g></svg>